<svg xmlns="http://www.w3.org/2000/svg" viewBox="0 0 75 50" paint-order="stroke fill" stroke-width="0.5">
	<path fill="#F00" d="M34.8 25S10.9 7.6 17.8 3.1c7.4-5 54 5.7 54.1 21.9S25.2 51.9 17.8 46.9c-6.9-4.5 17-21.9 17-21.9z"/>
	<path fill="#000" stroke="#FFF0" d="M49.5 48.2c-11 .6-46-12.5-45.9-23.2S38.5 1.2 49.5 1.8c8.5.5-2.6 9.8-2.6 23.2s11 22.7 2.6 23.2z"/>
	<path fill="#FFF" stroke="#0000" d="M46.9 25c4.7 3.3 9.9 7.8 7.1 11-6.1 7.2-50.5 3-50.5-11S47.9 6.8 54 14c2.7 3.2-2.5 7.7-7.1 11L27.2 12.3v25.3z"/>
</svg>